<?xml version="1.0" encoding="UTF-8"?>
<!-- Generator: Adobe Illustrator 19.1.0, SVG Export Plug-In . SVG Version: 6.00 Build 0)  -->
<svg xmlns="http://www.w3.org/2000/svg" xmlns:xlink="http://www.w3.org/1999/xlink" xmlns:dc="http://purl.org/dc/elements/1.1/" xmlns:cc="http://creativecommons.org/ns#" xmlns:rdf="http://www.w3.org/1999/02/22-rdf-syntax-ns#" version="1.1" id="DESIGNS" x="0px" y="0px" width="32px" height="32px" viewBox="0 0 32 32" style="enable-background:new 0 0 32 32;" xml:space="preserve">
<title property="dc:title">to locate</title><desc property="dc:description">An icon for "locate" from the Avocado series on to [icon]. Downloaded from http://www.toicon.com/icons/avocado_locate by 81.245.32.61 on 2017-10-29. Licensed CC-BY, see http://toicon.com/license/ for details.</desc>
<g>
	<path class="avocado_zeventien" d="M16,29.343C17.786,27.79,26.5,19.809,26.5,12c0-5.79-4.71-10.5-10.5-10.5S5.5,6.21,5.5,12   C5.5,19.809,14.214,27.79,16,29.343z" style="fill: #CC4121;"/>
	<circle class="avocado_zes" cx="16" cy="12" r="5.5" style="fill: #FFFAEE;"/>
	<path class="avocado_een" d="M16,1C9.925,1,5,5.925,5,12c0,9,11,18,11,18s11-9,11-18C27,5.925,22.075,1,16,1z M16,28.677   C13.71,26.629,6,19.202,6,12C6,6.486,10.486,2,16,2s10,4.486,10,10C26,19.202,18.29,26.629,16,28.677z M16,6c-3.314,0-6,2.686-6,6   s2.686,6,6,6s6-2.686,6-6S19.314,6,16,6z M16,17c-2.757,0-5-2.243-5-5s2.243-5,5-5s5,2.243,5,5S18.757,17,16,17z" style="fill: #231F20;"/>
</g>
<metadata><work rdf:about=""><format>image/svg+xml</format><type rdf:resource="http://purl.org/dc/dcmitype/StillImage"/><license rdf:resource="http://creativecommons.org/licenses/by/4.0/"/><attributionname>Shannon E Thomas</attributionname><attributionurl>http://www.toicon.com/icons/avocado_locate</attributionurl></work></metadata></svg>
